Coordinates
version=1
nRows=7
nColumns=40
inDegrees=yes

Units are S.I. units (second, meters, Newtons, ...)
Angles are in degrees.

endheader
time	pelvis_tilt	pelvis_list	pelvis_rotation	pelvis_tx	pelvis_ty	pelvis_tz	hip_flexion_r	hip_adduction_r	hip_rotation_r	knee_angle_r	knee_angle_r_beta	ankle_angle_r	subtalar_angle_r	mtp_angle_r	hip_flexion_l	hip_adduction_l	hip_rotation_l	knee_angle_l	knee_angle_l_beta	ankle_angle_l	subtalar_angle_l	mtp_angle_l	lumbar_extension	lumbar_bending	lumbar_rotation	arm_flex_r	arm_add_r	arm_rot_r	elbow_flex_r	pro_sup_r	wrist_flex_r	wrist_dev_r	arm_flex_l	arm_add_l	arm_rot_l	elbow_flex_l	pro_sup_l	wrist_flex_l	wrist_dev_l
     43.01250000	     -2.95518841	     -5.31275228	      0.65632896	      1.08866632	      0.91634443	      0.44292563	     23.98540757	      2.04855362	    -13.90112647	     21.20309745	     21.20309745	      2.79929952	     -3.18387081	     -3.04967280	      3.67540686	    -13.14306289	     -8.13365646	     44.42414016	     44.42414016	      6.78762659	    -16.22814427	    -14.65521871	     -9.91383844	      6.58072888	      1.59902819	    -13.14756100	    -11.19932977	    -14.72530444	     22.07552950	     46.98631645	      0.00000000	      0.00000000	     17.15191645	    -16.98088912	     -8.25772218	     88.75888917	     48.03331644	      0.00000000	      0.00000000
     43.02400000	     -2.99771708	     -5.53465253	      0.94215001	      1.08892084	      0.91772609	      0.44541709	     23.18826576	      2.37424557	    -14.39327185	     20.92935005	     20.92935005	      3.50024150	     -2.71587909	     -3.34669676	      6.11325670	    -13.76619702	     -6.66886937	     48.82982373	     48.82982373	      5.59034055	    -16.99202582	    -10.79214502	     -9.89284571	      6.77560213	      1.57837991	    -11.58339968	    -11.16577804	    -14.37833270	     22.76908581	     46.93602461	      0.00000000	      0.00000000	     16.05821771	    -16.19845320	     -8.42998552	     86.52947158	     48.01047888	      0.00000000	      0.00000000
     43.03550000	     -2.99762416	     -5.89113031	      1.22084711	      1.08898194	      0.91900807	      0.44784070	     22.27772562	      2.90128820	    -14.82201669	     20.46684418	     20.46684418	      4.07488043	     -2.38692405	     -3.53137507	      8.47702618	    -14.57651122	     -5.44014438	     52.78716336	     52.78716336	      3.65011145	    -17.74970565	     -9.63506075	    -10.02069104	      7.08312218	      1.83930704	    -10.00884120	    -11.13808487	    -14.29930877	     23.46051642	     46.91238120	      0.00000000	      0.00000000	     14.80450634	    -15.40635316	     -7.98827757	     85.43669473	     47.95616923	      0.00000000	      0.00000000
     43.04700000	     -3.17279556	     -5.95984085	      1.56219744	      1.08867858	      0.92017278	      0.44951891	     21.52425823	      2.98707671	    -15.56554559	     19.94506652	     19.94506652	      4.50281354	     -1.40956123	     -4.17633122	     11.45197732	    -14.58094429	     -3.62406066	     57.18384905	     57.18384905	      5.28755257	    -17.35532463	      0.26015880	     -9.83170833	      7.20509445	      2.09365320	     -8.75733119	    -11.20620822	    -13.96142303	     24.83420642	     46.81999898	      0.00000000	      0.00000000	     14.27000650	    -14.44138723	     -7.77307499	     81.71938915	     47.88910782	      0.00000000	      0.00000000
     43.05850000	     -3.25516605	     -6.12131783	      1.89207387	      1.08827794	      0.92136035	      0.45117713	     20.67440534	      3.20592665	    -16.26871083	     19.40538595	     19.40538595	      4.92166001	     -0.49616611	     -4.53596192	     14.02386830	    -14.77811815	     -2.25246076	     60.57957542	     60.57957542	      4.90882844	    -17.79672624	      3.69670163	     -9.81272302	      7.39301065	      2.16105747	     -7.15886273	    -11.32106429	    -13.85479407	     26.08507683	     46.75961835	      0.00000000	      0.00000000	     13.36162806	    -13.75463579	     -7.36604438	     78.86917171	     47.81607520	      0.00000000	      0.00000000
     43.07000000	     -3.27793991	     -6.34026260	      2.17744629	      1.08775867	      0.92252499	      0.45273750	     19.78927503	      3.56824139	    -16.63765719	     18.85846077	     18.85846077	      5.28014334	     -0.08034783	     -4.60682292	     16.37902138	    -15.07844498	     -1.18299618	     63.35934671	     63.35934671	      4.01407963	    -18.27144841	      4.18006475	     -9.97932873	      7.60424441	      2.34016491	     -5.28934578	    -11.49001740	    -13.84532656	     26.97321056	     46.73569954	      0.00000000	      0.00000000	     12.04849621	    -12.98563779	     -6.84791035	     77.48682785	     47.74873103	      0.00000000	      0.00000000
     43.08150000	     -3.39066811	     -6.43043082	      2.52645234	      1.08709159	      0.92371106	      0.45387300	     18.89292697	      3.66280510	    -17.60494550	     18.14781083	     18.14781083	      5.60012195	      1.37137034	     -4.95881333	     18.96006200	    -15.00896283	     -0.00786152	     65.99572889	     65.99572889	      5.12877521	    -18.22274845	      8.85096971	     -9.84437461	      7.77031924	      2.68298838	     -3.76662870	    -11.71667815	    -13.77885842	     28.43981787	     46.66423917	      0.00000000	      0.00000000	     11.94237165	    -12.04477427	     -6.49393879	     72.37195064	     47.63806029	      0.00000000	      0.00000000
